PathFileType	4	(X/Y/Z)	D:\Share\Shared_Data\Ergonomics\Sit To Stand Pertubation\S3\S3 Cal 01.trc
DataRate	CameraRate	NumFrames	NumMarkers	Units	OrigDataRate	OrigDataStartFrame	OrigNumFrames	
100	100	6	21	mm	100	154	204
Frame#	Time	R_ASIS			R_Pelvis			V_Sacral			L_Pelvis			L_ASIS			Clavical			R_Acromium			L_Acromium			Sternum			Torso			R_Thigh_Med			R_Thigh_Lat			R_Thigh			R_Shank_Med			R_Shank_Lat			R_Shank			R_Heel			R_Toe			RAJC			RHJC			RKJC			
		X1	Y1	Z1	X2	Y2	Z2	X3	Y3	Z3	X4	Y4	Z4	X5	Y5	Z5	X6	Y6	Z6	X7	Y7	Z7	X8	Y8	Z8	X9	Y9	Z9	X10	Y10	Z10	X11	Y11	Z11	X12	Y12	Z12	X13	Y13	Z13	X14	Y14	Z14	X15	Y15	Z15	X16	Y16	Z16	X17	Y17	Z17	X18	Y18	Z18	X19	Y19	Z19	X20	Y20	Z20	X21	Y21	Z21	

154	1.53	307.11429	940.61548	126.67841	196.88979	954.74994	178.3597	93.747345	991.75885	-14.451777	205.05475	963.60223	-208.6537	306.77075	930.98334	-157.09792	275.01471	1375.3936	-13.208071	191.15588	1425.733	150.53651	217.71886	1427.3206	-168.64352	307.34042	1302.1672	-7.9462781	281.66666	1361.4633	-80.462952	256.53067	468.53983	31.519777	224.50777	457.12793	130.61024	313.34305	661.57941	89.058083	181.04645	104.97643	73.219467	166.69899	98.358376	155.77151	164.65404	284.90781	157.96512	110.2278	56.276527	114.84421	327.9126	56.053257	103.76524	173.87272	101.667403	114.4954885	221.9485617	862.2613583	88.44764617	240.51922	462.83388	81.0650085
155	1.54	307.0253	940.60541	126.68884	196.84546	954.75684	178.39584	93.741554	991.77374	-14.474414	205.06897	963.59796	-208.63837	306.76157	930.98956	-157.07179	275.02231	1375.3586	-13.177824	191.20576	1425.7128	150.5723	217.73813	1427.3408	-168.58698	307.29477	1302.1346	-7.9397979	281.64362	1361.4629	-80.420746	256.48376	468.54282	31.524323	224.45529	457.12247	130.61461	313.35822	661.46631	89.285568	181.10994	104.99716	73.208969	166.67349	98.418159	155.83781	164.59291	284.89352	157.96144	110.23052	56.290241	114.82206	327.91074	56.065117	103.76524	173.891715	101.7076595	114.5233895	221.870967	862.2662885	88.43212531	240.469525	462.832645	81.0694665
156	1.55	306.97723	940.60242	126.72475	196.78993	954.75647	178.37259	93.739792	991.7793	-14.500842	205.07811	963.59717	-208.63541	306.79935	930.97986	-157.04337	275.01324	1375.3541	-13.133467	191.24072	1425.6941	150.64282	217.72607	1427.3488	-168.53757	307.29462	1302.0995	-7.9038486	281.6196	1361.4459	-80.409569	256.48389	468.52768	31.538752	224.44485	457.13782	130.6306	313.31512	661.45789	89.303238	181.0954	104.99187	73.215714	167.19446	98.183456	156.66847	164.57576	284.90442	157.94701	110.23235	56.294464	114.84248	327.90692	56.049091	103.78471	174.14493	101.587663	114.942092	221.8297409	862.2648384	88.44267428	240.46437	462.83275	81.084676
157	1.56	306.99408	940.61597	126.77635	196.75636	954.76355	178.3707	93.72715	991.77295	-14.512678	205.10146	963.59686	-208.62335	306.81131	930.97046	-157.04326	274.99817	1375.3323	-13.100433	191.25435	1425.6553	150.70786	217.73463	1427.3726	-168.46715	307.25983	1302.0836	-7.8706446	281.60535	1361.4431	-80.346146	256.5766	468.31274	31.565216	224.42976	457.12509	130.62558	313.27112	661.47406	89.333916	181.06618	104.96857	73.184044	166.83585	98.320862	156.16074	164.55815	284.9007	157.9557	110.23519	56.286537	114.84479	327.90646	56.063156	103.75433	173.951015	101.644716	114.672392	221.8412352	862.2561954	88.49335127	240.50318	462.718915	81.095398
158	1.57	306.89343	940.61566	126.77239	196.69565	954.76422	178.39651	93.71521	991.80316	-14.56033	205.11711	963.61053	-208.65953	306.84262	930.97931	-157.02856	275.00537	1375.319	-13.064033	191.30641	1425.6429	150.80499	217.74597	1427.3777	-168.41797	307.24283	1302.076	-7.8543315	281.59607	1361.4324	-80.292625	256.62454	468.35321	31.576555	224.40274	457.14456	130.63441	313.24368	661.47998	89.334015	181.04413	104.99876	73.268616	166.87343	98.358704	156.14427	164.5537	284.90811	157.96265	110.22701	56.298416	114.84868	327.89929	56.055988	103.77136	173.95878	101.678732	114.706443	221.7531519	862.2730899	88.45014451	240.51364	462.748885	81.1054825
159	1.58	306.82944	940.61774	126.80827	196.62805	954.76691	178.34177	93.710632	991.81061	-14.593118	205.13522	963.61072	-208.67322	306.8392	930.987	-157.01398	274.97028	1375.3652	-12.970477	191.32425	1425.6287	150.85066	217.71336	1427.3839	-168.38937	307.2081	1302.0552	-7.8157439	281.56107	1361.4407	-80.266243	256.55789	468.4213	31.557455	224.37085	457.15128	130.64229	313.23361	661.49207	89.358086	181.04825	105.0608	73.412605	166.84865	98.28112	156.05655	164.5426	284.9245	157.95882	110.2315	56.308838	114.83143	327.91125	56.062786	103.77039	173.94845	101.67096	114.7345775	221.698534	862.2721044	88.4626537	240.46437	462.78629	81.0998725
